# xmcd
#
# Track frame offsets:
# 150
# 12817
# 25655
# 37742
# 51447
# 62542
# 76035
# 89947
# 101937
# 114942
#
# Disc length: 1734 seconds
#
#
# Revision: 1
# Processed by: cddbd v1.5PL3 Copyright (c) Steve Scherf et al.
# Submitted via: FreeRIP 2.60 
#
DISCID=7206c40a
DTITLE=Variou - Country Jukebox Favorites
DYEAR=1997
DGENRE=Country
TTITLE0=Exile - Give Me One More Chance
TTITLE1=The O'Kanes - Can't Stop My Heart From Loving You
TTITLE2=Ronnie McDowell - Older Women
TTITLE3=Willie Nelson and Leon Russell - Heartbreak Hotel
TTITLE4=Vern Gosdin - Set 'Em Up Joe
TTITLE5=B.J. Thomas - New Looks From An Old Lover
TTITLE6=Tanya Tucker - Blood Red And Goin' Down
TTITLE7=Mickey Gilley - That's All That Matters
TTITLE8=Janie Fricke - Your Heart's Not In It
TTITLE9=George Jones - He Stopped Loving Her Today
EXTD=
EXTT0=
EXTT1=
EXTT2=
EXTT3=
EXTT4=
EXTT5=
EXTT6=
EXTT7=
EXTT8=
EXTT9=
PLAYORDER=
